<?xml version="1.0" encoding="utf-8"?>
<!-- Generator: Adobe Illustrator 19.0.0, SVG Export Plug-In . SVG Version: 6.00 Build 0)  -->
<svg version="1.1" id="Calque_1" xmlns="http://www.w3.org/2000/svg" xmlns:xlink="http://www.w3.org/1999/xlink" x="0px" y="0px"
	 viewBox="0 0 388.4 82.9" style="enable-background:new 0 0 388.4 82.9;" xml:space="preserve">
<style type="text/css">
	.st0{clip-path:url(#SVGID_2_);fill:#E30613;}
	.st1{fill:#F6F6F6;}
	.st2{clip-path:url(#SVGID_4_);fill:#F6F6F6;}
	.st3{clip-path:url(#SVGID_6_);}
	.st4{clip-path:url(#SVGID_8_);}
	.st5{clip-path:url(#SVGID_10_);}
</style>
<g>
	<defs>
		<rect id="SVGID_1_" width="388.4" height="82.9"/>
	</defs>
	<clipPath id="SVGID_2_">
		<use xlink:href="#SVGID_1_"  style="overflow:visible;"/>
	</clipPath>
	<path class="st0" d="M20.6,58.5c7-1,16.3-2.4,25.7-3.7c0-0.3-0.1-0.5-0.1-0.8c-1.8,0-3.5-0.1-5.3-0.1c0-0.1,0-0.1,0-0.2
		c2.1-0.4,4.3-0.7,7.2-1.2c-2.3-0.6-3.9-0.9-6.3-1.5c3-0.5,5.1-0.9,7.2-1.2c-0.1-0.3-0.1-0.5-0.2-0.8c-11.3,1.3-22.6,2.6-33.9,3.9
		c0-0.2-0.1-0.4-0.1-0.5c10.9-1.6,21.7-3.3,33.3-5c-6.6-2.4-12.9-0.8-18.9-1.3c-6.2-0.5-12.7,1.1-19.2,1.5
		c6.4-1.1,12.9-2.1,19.3-3.2c-0.1-0.3-0.1-0.7-0.2-1c-3.5,0.2-7.1,0.3-10.6,0.5c-3.4,0.1-7,1.6-10.4-0.6c2.3-0.6,4.9-0.4,6.3-2.7
		c0.5-0.8,3.7-0.6,5.8-1.2c-4.4,0-8.3-1-12.1-3.3c4.2-1.1,8.4-2.2,12.6-3.4c-0.1-0.3-0.2-0.6-0.2-0.8c-2.3,0-4.5-0.1-6.8-0.1
		c0-0.1,0-0.2,0-0.2c1.4-0.1,2.8-0.2,4.2-0.4c1.5-0.2,3.3-0.2,3.4-2.1c0-0.5,1.4-1.1,2.2-1.3c4.7-0.9,9.5-1.7,14.2-2.6
		c0.8-0.1,1.9-0.6,2-1.1c0.7-2.6,2.6-4.1,5.7-4.9c0.7-0.2,1.2-0.8,2.1-1.4c-2.1-0.7-3.7-1.3-5.4-1.8c-1.4-0.4-3.6-0.4-4.1-1.1
		c-1-1.6-1.4-3.6-1.5-5.5c0-1.4,0.9-2.9,1.5-4.3c0.6-1.4,1-3.5,2.1-3.9c2.7-0.8,5.9-1,8.8-0.9C54.5,0.7,60,0.9,65.7,0.4
		C73.3-0.2,81.1,0,88.8,0.1c20.6,0.2,41.2,0.5,61.8,0.8c18.4,0.2,36.8,0.4,55.3,0.7c4.1,0.1,8.2,0.6,11.2,0.8
		c1.1,0.9,1.6,1.7,2.2,1.8c2.2,0.2,4.5,0.3,6.8,0.2c6.5-0.4,12.4,0.8,17.9,3.4c1.7,0.8,3.7,1.3,5.6,1.9c-0.1,0.2,0,0.4-0.1,0.5
		c-0.8,0.6-1.6,1.1-2.3,1.6c1,0.4,2,1.1,3.1,1.2c5.2,0.6,10.5,1,15.9,1.4c-0.5,1.6-3.8,3.2-1,5c1.8,1.2,4.2,1.8,6.3,2.7
		c0,0.2-0.1,0.5-0.1,0.7c-3.4-0.1-6.7-0.1-10.1-0.2c-0.1,0.3-0.1,0.6-0.2,0.9c5.8,1.6,11.6,3.2,16.3,4.5c-8.1,0.8-17.5,0.2-26.8,1.8
		c9.3,2,19.6-0.6,28.2,4.3c0,0.4-0.1,1.1-0.2,1.8c-2.9,0.2-5.8,0.5-8.7,0.7c0,0.2-0.1,0.5-0.1,0.7c1.3,0.2,2.6,0.4,3.9,0.7
		c0,0.1,0.1,0.2,0.2,0.3c-3.3,0.4-6.6,0.9-10,1.3c0,0.2,0,0.4,0,0.6c5.6,0.1,11.2,0.2,16.8,0.3c0,0.1,0,0.3,0.1,0.4
		c-13.2,1-26.4,2-39.6,3c0,0.2-0.1,0.4-0.1,0.5c0.7,0.3,1.4,0.6,2.1,0.9c0,0.1,0,0.3,0,0.4c-6.1-0.1-12.2-0.2-18.3-0.3
		c0,0.3-0.1,0.6-0.1,0.9c9.9,1.6,20.3-0.1,30.2,2.3c-4.5-0.1-9.1-0.2-13.6-0.3c0,0.3,0,0.7,0,1c2.3,0.1,4.5,0.3,6.8,0.4
		c0,0.2,0,0.3,0,0.5c-3.3-0.1-6.6-0.2-9.9-0.2c-8.5,0.2-17,0.4-25.5,0.7c-2.2,0.1-4.5,0.3-6.7,0.7c11.2,0.2,22.3,0.4,33.5,0.6
		c-6.9,0.8-14.1-0.9-21.1,1.9c1.6,0.7,3,1.3,4.8,2.1c-0.1-0.9-0.2-1.4-0.2-2.3c6.9,0.1,13.8,0.3,20.7,0.4c0,0.1,0,0.3,0,0.4
		c-1.9,0-4.7-0.7-5.6,0c-2.5,2-5.3,0.9-7.9,1.1c-5.1,0.3-10.3,0.5-15.4,0.6c-11.3,0.3-22.6,0.6-33.8,0.8c-16,0.4-32.1,0.8-48.1,1
		c-19.7,0.3-39.5,0.4-59.2,0.5c-10.4,0-20.8-0.1-31.2-0.2C34.3,58.5,26.3,58.5,20.6,58.5"/>
</g>
<rect x="58.5" y="13.1" class="st1" width="6.8" height="30"/>
<g>
	<defs>
		<rect id="SVGID_3_" width="388.4" height="82.9"/>
	</defs>
	<clipPath id="SVGID_4_">
		<use xlink:href="#SVGID_3_"  style="overflow:visible;"/>
	</clipPath>
	<path class="st2" d="M70.5,39.5c0-2.4,1.6-4.1,4-4.1c2.4,0,4,1.7,4,4.1c0,2.4-1.6,4.1-4,4.1C72.2,43.6,70.5,41.8,70.5,39.5"/>
	<path class="st2" d="M83,36.1c1.8,0.9,4.6,1.9,7.5,1.9c3.1,0,4.8-1.3,4.8-3.2c0-1.9-1.4-2.9-5-4.2c-5-1.7-8.2-4.5-8.2-8.8
		c0-5.1,4.3-9,11.3-9c3.4,0,5.9,0.7,7.6,1.5l-1.5,5.5c-1.2-0.6-3.3-1.4-6.3-1.4c-2.9,0-4.4,1.3-4.4,2.9c0,1.9,1.7,2.8,5.6,4.2
		c5.3,2,7.8,4.7,7.8,8.9c0,5-3.9,9.3-12.1,9.3c-3.4,0-6.8-0.9-8.5-1.8L83,36.1z"/>
	<path class="st2" d="M106.1,39.5c0-2.4,1.6-4.1,4-4.1c2.4,0,4,1.7,4,4.1c0,2.4-1.6,4.1-4,4.1C107.7,43.6,106.1,41.8,106.1,39.5"/>
	<path class="st2" d="M140.3,42.2c-1.2,0.6-4,1.3-7.7,1.3c-10.4,0-15.7-6.4-15.7-15c0-10.2,7.3-15.9,16.4-15.9
		c3.5,0,6.2,0.7,7.4,1.3l-1.4,5.4c-1.4-0.6-3.3-1.1-5.7-1.1c-5.4,0-9.6,3.2-9.6,9.9c0,6,3.6,9.8,9.6,9.8c2,0,4.3-0.4,5.6-1
		L140.3,42.2z"/>
	<path class="st2" d="M144.1,39.5c0-2.4,1.6-4.1,4-4.1c2.4,0,4,1.7,4,4.1c0,2.4-1.6,4.1-4,4.1C145.7,43.6,144.1,41.8,144.1,39.5"/>
	<path class="st2" d="M163.1,26.4h2.7c3.4,0,5.4-1.7,5.4-4.3c0-2.8-1.9-4.1-5-4.2c-1.6,0-2.6,0.1-3.1,0.2V26.4z M156.3,13.5
		c2.2-0.4,5.4-0.6,9-0.6c4.4,0,7.6,0.7,9.7,2.4c1.8,1.4,2.8,3.5,2.8,6.3c0,3.8-2.7,6.4-5.3,7.4V29c2.1,0.8,3.2,2.8,4,5.6
		c0.9,3.4,1.9,7.3,2.4,8.4H172c-0.5-0.8-1.2-3.3-2.1-7c-0.8-3.7-2.1-4.8-4.8-4.8h-2v11.8h-6.7V13.5z"/>
	<path class="st2" d="M182,39.5c0-2.4,1.6-4.1,4-4.1c2.4,0,4,1.7,4,4.1c0,2.4-1.6,4.1-4,4.1C183.6,43.6,182,41.8,182,39.5"/>
	<path class="st2" d="M208.8,30.3L207,24c-0.5-1.8-1.1-4-1.5-5.8h-0.1c-0.4,1.8-0.9,4-1.4,5.8l-1.8,6.4H208.8z M201.2,35.4l-2.1,7.7
		h-7l9.2-30h8.9l9.3,30h-7.3l-2.3-7.7H201.2z"/>
	<path class="st2" d="M222.7,39.5c0-2.4,1.6-4.1,4-4.1c2.4,0,4,1.7,4,4.1c0,2.4-1.6,4.1-4,4.1C224.4,43.6,222.7,41.8,222.7,39.5"/>
</g>
<rect y="67.2" width="1.6" height="12.1"/>
<g>
	<defs>
		<rect id="SVGID_5_" width="388.4" height="82.9"/>
	</defs>
	<clipPath id="SVGID_6_">
		<use xlink:href="#SVGID_5_"  style="overflow:visible;"/>
	</clipPath>
	<path class="st3" d="M4.4,73c0-0.9,0-1.6-0.1-2.4h1.4l0.1,1.4h0c0.4-0.8,1.4-1.6,2.9-1.6c1.2,0,3.1,0.7,3.1,3.7v5.2h-1.6v-5
		c0-1.4-0.5-2.6-2-2.6c-1,0-1.9,0.7-2.1,1.6C6,73.6,6,73.8,6,74.1v5.2H4.4V73z"/>
	<path class="st3" d="M14.2,77.7c0.5,0.3,1.3,0.6,2.1,0.6c1.2,0,1.7-0.6,1.7-1.3c0-0.8-0.5-1.2-1.6-1.6c-1.6-0.6-2.3-1.4-2.3-2.5
		c0-1.4,1.1-2.6,3-2.6c0.9,0,1.7,0.3,2.1,0.5l-0.4,1.2c-0.3-0.2-1-0.5-1.8-0.5c-0.9,0-1.5,0.5-1.5,1.2c0,0.7,0.5,1,1.7,1.5
		c1.5,0.6,2.3,1.3,2.3,2.6c0,1.5-1.2,2.6-3.3,2.6c-1,0-1.8-0.2-2.4-0.6L14.2,77.7z"/>
	<path class="st3" d="M23.5,68.1v2.5h2.3v1.2h-2.3v4.7c0,1.1,0.3,1.7,1.2,1.7c0.4,0,0.7-0.1,0.9-0.1l0.1,1.2
		c-0.3,0.1-0.8,0.2-1.4,0.2c-0.7,0-1.3-0.2-1.7-0.7c-0.5-0.5-0.6-1.2-0.6-2.3v-4.8h-1.3v-1.2h1.3v-2.1L23.5,68.1z"/>
	<path class="st3" d="M27.5,70.6h1.6v8.7h-1.6V70.6z M29.3,68.2c0,0.5-0.4,1-1,1c-0.6,0-1-0.4-1-1c0-0.6,0.4-1,1-1
		C28.9,67.2,29.3,67.6,29.3,68.2"/>
	<path class="st3" d="M33.6,68.1v2.5h2.3v1.2h-2.3v4.7c0,1.1,0.3,1.7,1.2,1.7c0.4,0,0.7-0.1,0.9-0.1l0.1,1.2
		c-0.3,0.1-0.8,0.2-1.4,0.2c-0.7,0-1.3-0.2-1.7-0.7c-0.5-0.5-0.6-1.2-0.6-2.3v-4.8h-1.3v-1.2h1.3v-2.1L33.6,68.1z"/>
	<path class="st3" d="M45,77c0,0.9,0,1.7,0.1,2.4h-1.4l-0.1-1.4h0c-0.4,0.7-1.3,1.6-2.9,1.6c-1.4,0-3-0.8-3-3.8v-5.1h1.6v4.8
		c0,1.7,0.5,2.8,1.9,2.8c1.1,0,1.8-0.7,2.1-1.4c0.1-0.2,0.1-0.5,0.1-0.8v-5.3H45V77z"/>
	<path class="st3" d="M49.5,68.1v2.5h2.3v1.2h-2.3v4.7c0,1.1,0.3,1.7,1.2,1.7c0.4,0,0.7-0.1,0.9-0.1l0.1,1.2
		c-0.3,0.1-0.8,0.2-1.4,0.2c-0.7,0-1.3-0.2-1.7-0.7c-0.5-0.5-0.6-1.2-0.6-2.3v-4.8h-1.3v-1.2H48v-2.1L49.5,68.1z"/>
	<path class="st3" d="M57.2,77.4c0.7,0.4,1.7,0.8,2.8,0.8c1.6,0,2.5-0.8,2.5-2.1c0-1.1-0.6-1.8-2.3-2.4c-2-0.7-3.2-1.7-3.2-3.4
		c0-1.9,1.6-3.3,3.9-3.3c1.2,0,2.1,0.3,2.7,0.6l-0.4,1.3c-0.4-0.2-1.2-0.6-2.3-0.6c-1.7,0-2.3,1-2.3,1.8c0,1.1,0.7,1.7,2.4,2.3
		c2,0.8,3.1,1.8,3.1,3.6c0,1.9-1.4,3.5-4.2,3.5c-1.2,0-2.4-0.3-3.1-0.8L57.2,77.4z"/>
	<path class="st3" d="M67.3,75c0,1.9,1.1,3.3,2.6,3.3c1.5,0,2.6-1.4,2.6-3.4c0-1.5-0.7-3.3-2.6-3.3S67.3,73.3,67.3,75 M74.2,74.9
		c0,3.2-2.2,4.6-4.3,4.6c-2.4,0-4.2-1.7-4.2-4.5c0-2.9,1.9-4.6,4.3-4.6C72.5,70.4,74.2,72.2,74.2,74.9"/>
	<path class="st3" d="M82.4,79c-0.4,0.2-1.3,0.5-2.5,0.5c-2.6,0-4.3-1.8-4.3-4.4c0-2.7,1.8-4.6,4.7-4.6c0.9,0,1.8,0.2,2.2,0.4
		l-0.4,1.2c-0.4-0.2-1-0.4-1.8-0.4c-2,0-3.1,1.5-3.1,3.3c0,2,1.3,3.3,3,3.3c0.9,0,1.5-0.2,1.9-0.4L82.4,79z"/>
	<path class="st3" d="M84.3,70.6h1.6v8.7h-1.6V70.6z M86.1,68.2c0,0.5-0.4,1-1,1c-0.6,0-1-0.4-1-1c0-0.6,0.4-1,1-1
		C85.7,67.2,86.1,67.6,86.1,68.2"/>
	<path class="st3" d="M93.1,74.9c-1.7,0-3.7,0.3-3.7,2c0,1,0.7,1.5,1.5,1.5c1.1,0,1.9-0.7,2.1-1.5c0.1-0.2,0.1-0.3,0.1-0.5V74.9z
		 M93.3,79.3l-0.1-1.1h-0.1c-0.5,0.7-1.4,1.3-2.7,1.3c-1.8,0-2.7-1.2-2.7-2.5c0-2.1,1.9-3.3,5.2-3.2v-0.2c0-0.7-0.2-2-2-2
		c-0.8,0-1.7,0.3-2.3,0.6l-0.4-1c0.7-0.5,1.8-0.8,2.9-0.8c2.7,0,3.3,1.8,3.3,3.6v3.3c0,0.8,0,1.5,0.1,2.1H93.3z"/>
</g>
<rect x="97.2" y="66.6" width="1.6" height="12.8"/>
<g>
	<defs>
		<rect id="SVGID_7_" width="388.4" height="82.9"/>
	</defs>
	<clipPath id="SVGID_8_">
		<use xlink:href="#SVGID_7_"  style="overflow:visible;"/>
	</clipPath>
	<path class="st4" d="M110.8,74.1c0-1-0.4-2.6-2.2-2.6c-1.6,0-2.3,1.5-2.4,2.6H110.8z M106.1,75.3c0,2.1,1.4,3,3,3
		c1.1,0,1.8-0.2,2.4-0.5l0.3,1.1c-0.6,0.3-1.5,0.5-2.9,0.5c-2.7,0-4.3-1.8-4.3-4.4s1.5-4.7,4.1-4.7c2.8,0,3.6,2.5,3.6,4.1
		c0,0.3,0,0.6-0.1,0.7H106.1z"/>
	<path class="st4" d="M116.2,68.1v2.5h2.3v1.2h-2.3v4.7c0,1.1,0.3,1.7,1.2,1.7c0.4,0,0.7-0.1,0.9-0.1l0.1,1.2
		c-0.3,0.1-0.8,0.2-1.4,0.2c-0.7,0-1.3-0.2-1.7-0.7c-0.4-0.5-0.6-1.2-0.6-2.3v-4.8h-1.3v-1.2h1.3v-2.1L116.2,68.1z"/>
	<path class="st4" d="M132.6,78.9c-0.6,0.3-1.7,0.6-3.2,0.6c-3.4,0-6-2.2-6-6.1c0-3.8,2.6-6.4,6.3-6.4c1.5,0,2.5,0.3,2.9,0.5
		l-0.4,1.3c-0.6-0.3-1.4-0.5-2.4-0.5c-2.8,0-4.7,1.8-4.7,5c0,3,1.7,4.9,4.7,4.9c1,0,1.9-0.2,2.6-0.5L132.6,78.9z"/>
	<path class="st4" d="M135.2,75c0,1.9,1.1,3.3,2.6,3.3c1.5,0,2.6-1.4,2.6-3.4c0-1.5-0.7-3.3-2.6-3.3S135.2,73.3,135.2,75
		 M142.2,74.9c0,3.2-2.2,4.6-4.3,4.6c-2.4,0-4.2-1.7-4.2-4.5c0-2.9,1.9-4.6,4.3-4.6C140.5,70.4,142.2,72.2,142.2,74.9"/>
	<path class="st4" d="M145.1,75c0,1.9,1.1,3.3,2.6,3.3c1.5,0,2.6-1.4,2.6-3.4c0-1.5-0.7-3.3-2.6-3.3C145.9,71.6,145.1,73.3,145.1,75
		 M152,74.9c0,3.2-2.2,4.6-4.3,4.6c-2.4,0-4.2-1.7-4.2-4.5c0-2.9,1.9-4.6,4.3-4.6C150.3,70.4,152,72.2,152,74.9"/>
	<path class="st4" d="M155.6,75.8c0,0.2,0,0.4,0.1,0.6c0.3,1.1,1.2,1.9,2.4,1.9c1.7,0,2.6-1.4,2.6-3.4c0-1.7-0.9-3.2-2.6-3.2
		c-1.1,0-2.1,0.8-2.4,2c-0.1,0.2-0.1,0.4-0.1,0.6V75.8z M154,73.5c0-1.1,0-2-0.1-2.8h1.4l0.1,1.5h0c0.6-1.1,1.7-1.7,3.1-1.7
		c2.1,0,3.7,1.8,3.7,4.4c0,3.1-1.9,4.7-4,4.7c-1.2,0-2.2-0.5-2.7-1.4h0v4.7H154V73.5z"/>
	<path class="st4" d="M170.2,66.9l-2.2,2.6h-1.1l1.6-2.6H170.2z M169.8,74.1c0-1-0.4-2.6-2.2-2.6c-1.6,0-2.3,1.5-2.4,2.6H169.8z
		 M165.2,75.3c0,2.1,1.4,3,3,3c1.1,0,1.8-0.2,2.4-0.5l0.3,1.1c-0.6,0.3-1.5,0.5-2.9,0.5c-2.7,0-4.3-1.8-4.3-4.4s1.5-4.7,4.1-4.7
		c2.8,0,3.6,2.5,3.6,4.1c0,0.3,0,0.6-0.1,0.7H165.2z"/>
	<path class="st4" d="M173.3,73.3c0-1,0-1.9-0.1-2.7h1.4l0.1,1.7h0.1c0.4-1.2,1.3-1.9,2.4-1.9c0.2,0,0.3,0,0.4,0.1V72
		c-0.2,0-0.3-0.1-0.5-0.1c-1.1,0-1.9,0.8-2.1,2c0,0.2-0.1,0.5-0.1,0.7v4.6h-1.6V73.3z"/>
	<path class="st4" d="M183.7,74.9c-1.7,0-3.7,0.3-3.7,2c0,1,0.7,1.5,1.5,1.5c1.1,0,1.9-0.7,2.1-1.5c0.1-0.2,0.1-0.3,0.1-0.5V74.9z
		 M183.9,79.3l-0.1-1.1h-0.1c-0.5,0.7-1.4,1.3-2.7,1.3c-1.8,0-2.7-1.2-2.7-2.5c0-2.1,1.9-3.3,5.2-3.2v-0.2c0-0.7-0.2-2-2-2
		c-0.8,0-1.7,0.3-2.3,0.6l-0.4-1c0.7-0.5,1.8-0.8,2.9-0.8c2.7,0,3.3,1.8,3.3,3.6v3.3c0,0.8,0,1.5,0.1,2.1H183.9z"/>
	<path class="st4" d="M189.6,68.1v2.5h2.3v1.2h-2.3v4.7c0,1.1,0.3,1.7,1.2,1.7c0.4,0,0.7-0.1,0.9-0.1l0.1,1.2
		c-0.3,0.1-0.8,0.2-1.4,0.2c-0.7,0-1.3-0.2-1.7-0.7c-0.4-0.5-0.6-1.2-0.6-2.3v-4.8h-1.3v-1.2h1.3v-2.1L189.6,68.1z"/>
	<path class="st4" d="M193.7,70.6h1.6v8.7h-1.6V70.6z M195.4,68.2c0,0.5-0.4,1-1,1c-0.6,0-1-0.4-1-1c0-0.6,0.4-1,1-1
		C195,67.2,195.4,67.6,195.4,68.2"/>
	<path class="st4" d="M198,79.3v-7.5h-1.2v-1.2h1.2v-0.4c0-1.2,0.3-2.3,1-3c0.6-0.6,1.4-0.8,2.1-0.8c0.6,0,1,0.1,1.3,0.3l-0.2,1.2
		c-0.2-0.1-0.6-0.2-1-0.2c-1.3,0-1.7,1.2-1.7,2.5v0.5h2.1v1.2h-2.1v7.5H198z"/>
	<path class="st4" d="M212.9,74.2c0-0.2,0-0.5-0.1-0.7c-0.2-1-1.1-1.8-2.3-1.8c-1.6,0-2.6,1.4-2.6,3.4c0,1.8,0.9,3.2,2.6,3.2
		c1.1,0,2-0.7,2.3-1.9c0.1-0.2,0.1-0.4,0.1-0.7V74.2z M214.5,66.6v10.5c0,0.8,0,1.7,0.1,2.2h-1.4l-0.1-1.5h0c-0.5,1-1.5,1.7-3,1.7
		c-2.1,0-3.7-1.8-3.7-4.4c0-2.9,1.8-4.7,3.9-4.7c1.3,0,2.2,0.6,2.6,1.3h0v-5.2H214.5z"/>
	<path class="st4" d="M222.6,74.1c0-1-0.4-2.6-2.2-2.6c-1.6,0-2.3,1.5-2.4,2.6H222.6z M218,75.3c0,2.1,1.4,3,3,3
		c1.1,0,1.8-0.2,2.4-0.5l0.3,1.1c-0.6,0.3-1.5,0.5-2.9,0.5c-2.7,0-4.3-1.8-4.3-4.4s1.5-4.7,4.1-4.7c2.8,0,3.6,2.5,3.6,4.1
		c0,0.3,0,0.6-0.1,0.7H218z"/>
	<path class="st4" d="M231.5,72.9h1.6c1.7,0,2.7-0.9,2.7-2.3c0-1.6-1.1-2.2-2.8-2.3c-0.8,0-1.3,0.1-1.5,0.1V72.9z M230,67.4
		c0.8-0.2,1.9-0.3,3-0.3c1.7,0,2.8,0.3,3.5,1c0.6,0.5,1,1.4,1,2.3c0,1.6-1,2.7-2.3,3.1v0.1c0.9,0.3,1.5,1.2,1.8,2.4
		c0.4,1.7,0.7,2.9,0.9,3.3h-1.6c-0.2-0.3-0.5-1.4-0.8-2.9c-0.4-1.7-1-2.3-2.4-2.4h-1.5v5.3H230V67.4z"/>
	<path class="st4" d="M245.2,74.1c0-1-0.4-2.6-2.2-2.6c-1.6,0-2.3,1.5-2.4,2.6H245.2z M240.6,75.3c0,2.1,1.4,3,3,3
		c1.1,0,1.8-0.2,2.4-0.5l0.3,1.1c-0.6,0.3-1.5,0.5-2.9,0.5c-2.7,0-4.3-1.8-4.3-4.4s1.5-4.7,4.1-4.7c2.8,0,3.6,2.5,3.6,4.1
		c0,0.3,0,0.6-0.1,0.7H240.6z"/>
	<path class="st4" d="M254.9,79c-0.4,0.2-1.3,0.5-2.5,0.5c-2.6,0-4.3-1.8-4.3-4.4c0-2.7,1.8-4.6,4.7-4.6c0.9,0,1.8,0.2,2.2,0.4
		l-0.4,1.2c-0.4-0.2-1-0.4-1.8-0.4c-2,0-3.1,1.5-3.1,3.3c0,2,1.3,3.3,3,3.3c0.9,0,1.5-0.2,1.9-0.4L254.9,79z"/>
	<path class="st4" d="M256.8,66.6h1.6V72h0c0.3-0.5,0.6-0.8,1.1-1.1c0.5-0.3,1-0.4,1.6-0.4c1.2,0,3,0.7,3,3.7v5.2h-1.6v-5
		c0-1.4-0.5-2.6-2-2.6c-1,0-1.8,0.7-2.1,1.6c-0.1,0.2-0.1,0.5-0.1,0.8v5.3h-1.6V66.6z"/>
	<path class="st4" d="M272.3,74.1c0-1-0.4-2.6-2.2-2.6c-1.6,0-2.3,1.5-2.4,2.6H272.3z M267.6,75.3c0,2.1,1.4,3,3,3
		c1.1,0,1.8-0.2,2.4-0.5l0.3,1.1c-0.6,0.3-1.5,0.5-2.9,0.5c-2.7,0-4.3-1.8-4.3-4.4s1.5-4.7,4.1-4.7c2.8,0,3.6,2.5,3.6,4.1
		c0,0.3,0,0.6-0.1,0.7H267.6z"/>
	<path class="st4" d="M275.8,73.3c0-1,0-1.9-0.1-2.7h1.4l0.1,1.7h0.1c0.4-1.2,1.3-1.9,2.4-1.9c0.2,0,0.3,0,0.4,0.1V72
		c-0.2,0-0.3-0.1-0.5-0.1c-1.1,0-1.9,0.8-2.1,2c0,0.2-0.1,0.5-0.1,0.7v4.6h-1.6V73.3z"/>
	<path class="st4" d="M287.7,79c-0.4,0.2-1.3,0.5-2.5,0.5c-2.6,0-4.3-1.8-4.3-4.4c0-2.7,1.8-4.6,4.7-4.6c0.9,0,1.8,0.2,2.2,0.4
		l-0.4,1.2c-0.4-0.2-1-0.4-1.8-0.4c-2,0-3.1,1.5-3.1,3.3c0,2,1.3,3.3,3,3.3c0.9,0,1.5-0.2,1.9-0.4L287.7,79z"/>
	<path class="st4" d="M289.5,66.6h1.6V72h0c0.3-0.5,0.6-0.8,1.1-1.1c0.5-0.3,1-0.4,1.6-0.4c1.2,0,3,0.7,3,3.7v5.2h-1.6v-5
		c0-1.4-0.5-2.6-2-2.6c-1,0-1.8,0.7-2.1,1.6c-0.1,0.2-0.1,0.5-0.1,0.8v5.3h-1.6V66.6z"/>
	<path class="st4" d="M305.1,74.1c0-1-0.4-2.6-2.2-2.6c-1.6,0-2.3,1.5-2.4,2.6H305.1z M300.4,75.3c0,2.1,1.4,3,3,3
		c1.1,0,1.8-0.2,2.4-0.5l0.3,1.1c-0.6,0.3-1.5,0.5-2.9,0.5c-2.7,0-4.3-1.8-4.3-4.4s1.5-4.7,4.1-4.7c2.8,0,3.6,2.5,3.6,4.1
		c0,0.3,0,0.6-0.1,0.7H300.4z"/>
	<path class="st4" d="M318.4,74.3l-1.2-3.5c-0.3-0.8-0.4-1.5-0.6-2.2h0c-0.2,0.7-0.4,1.5-0.6,2.2l-1.2,3.5H318.4z M314.4,75.5
		l-1.3,3.8h-1.6l4.1-12.1h1.9l4.1,12.1H320l-1.3-3.8H314.4z"/>
	<path class="st4" d="M324.9,75.8c0,0.2,0,0.4,0.1,0.6c0.3,1.1,1.2,1.9,2.4,1.9c1.7,0,2.6-1.4,2.6-3.4c0-1.7-0.9-3.2-2.6-3.2
		c-1.1,0-2.1,0.8-2.4,2c-0.1,0.2-0.1,0.4-0.1,0.6V75.8z M323.3,73.5c0-1.1,0-2-0.1-2.8h1.4l0.1,1.5h0c0.6-1.1,1.7-1.7,3.1-1.7
		c2.1,0,3.7,1.8,3.7,4.4c0,3.1-1.9,4.7-4,4.7c-1.2,0-2.2-0.5-2.7-1.4h0v4.7h-1.6V73.5z"/>
	<path class="st4" d="M335.1,75.8c0,0.2,0,0.4,0.1,0.6c0.3,1.1,1.2,1.9,2.4,1.9c1.7,0,2.6-1.4,2.6-3.4c0-1.7-0.9-3.2-2.6-3.2
		c-1.1,0-2.1,0.8-2.4,2c-0.1,0.2-0.1,0.4-0.1,0.6V75.8z M333.6,73.5c0-1.1,0-2-0.1-2.8h1.4l0.1,1.5h0c0.6-1.1,1.7-1.7,3.1-1.7
		c2.1,0,3.7,1.8,3.7,4.4c0,3.1-1.9,4.7-4,4.7c-1.2,0-2.2-0.5-2.7-1.4h0v4.7h-1.6V73.5z"/>
</g>
<rect x="343.8" y="66.6" width="1.6" height="12.8"/>
<g>
	<defs>
		<rect id="SVGID_9_" width="388.4" height="82.9"/>
	</defs>
	<clipPath id="SVGID_10_">
		<use xlink:href="#SVGID_9_"  style="overflow:visible;"/>
	</clipPath>
	<path class="st5" d="M348.1,70.6h1.6v8.7h-1.6V70.6z M349.8,68.2c0,0.5-0.4,1-1,1c-0.6,0-1-0.4-1-1c0-0.6,0.4-1,1-1
		C349.4,67.2,349.8,67.6,349.8,68.2"/>
	<path class="st5" d="M358.2,74.2c0-0.2,0-0.5-0.1-0.7c-0.2-1-1.1-1.8-2.3-1.8c-1.6,0-2.6,1.4-2.6,3.3c0,1.7,0.8,3.2,2.6,3.2
		c1,0,1.9-0.6,2.3-1.7c0.1-0.2,0.1-0.5,0.1-0.8V74.2z M358.2,78L358.2,78c-0.5,0.9-1.5,1.5-2.9,1.5c-2,0-3.7-1.8-3.7-4.4
		c0-3.3,2.1-4.7,3.9-4.7c1.4,0,2.2,0.7,2.7,1.5h0l0.1-1.3h1.5c0,0.7-0.1,1.5-0.1,2.4v9.9h-1.6V78z"/>
	<path class="st5" d="M369.7,77c0,0.9,0,1.7,0.1,2.4h-1.4l-0.1-1.4h0c-0.4,0.7-1.3,1.6-2.9,1.6c-1.4,0-3-0.8-3-3.8v-5.1h1.6v4.8
		c0,1.7,0.5,2.8,1.9,2.8c1.1,0,1.8-0.7,2.1-1.4c0.1-0.2,0.1-0.5,0.1-0.8v-5.3h1.6V77z"/>
	<path class="st5" d="M378.2,66.9l-2.2,2.6h-1.1l1.6-2.6H378.2z M377.8,74.1c0-1-0.4-2.6-2.2-2.6c-1.6,0-2.3,1.5-2.4,2.6H377.8z
		 M373.2,75.3c0,2.1,1.4,3,3,3c1.1,0,1.8-0.2,2.4-0.5l0.3,1.1c-0.6,0.3-1.5,0.5-2.9,0.5c-2.7,0-4.3-1.8-4.3-4.4s1.5-4.7,4.1-4.7
		c2.8,0,3.6,2.5,3.6,4.1c0,0.3,0,0.6-0.1,0.7H373.2z"/>
	<path class="st5" d="M386.9,74.1c0-1-0.4-2.6-2.2-2.6c-1.6,0-2.3,1.5-2.4,2.6H386.9z M382.2,75.3c0,2.1,1.4,3,3,3
		c1.1,0,1.8-0.2,2.4-0.5l0.3,1.1c-0.6,0.3-1.5,0.5-2.9,0.5c-2.7,0-4.3-1.8-4.3-4.4s1.5-4.7,4.1-4.7c2.8,0,3.6,2.5,3.6,4.1
		c0,0.3,0,0.6-0.1,0.7H382.2z"/>
</g>
</svg>
